<?xml version="1.0" encoding="UTF-8" standalone="no"?><!DOCTYPE svg PUBLIC "-//W3C//DTD SVG 1.1//EN" "http://www.w3.org/Graphics/SVG/1.1/DTD/svg11.dtd"><svg width="100%" height="100%" viewBox="0 0 512 512" version="1.1" xmlns="http://www.w3.org/2000/svg" xmlns:xlink="http://www.w3.org/1999/xlink" xml:space="preserve" style="fill-rule:evenodd;clip-rule:evenodd;stroke-linejoin:round;stroke-miterlimit:1.41421;"><g id="developer.2e..-api.2e..-coding.2e..-screen"><g id="___x33_"><g><rect x="99.457" y="110.051" width="313.085" height="197.194" style="fill:#262626;"/><path d="M412.986,95.796l-313.969,0c-5.089,0 -9.24,4.15 -9.24,9.241l0,210.931c0,5.702 4.15,10.37 9.24,10.37l71.086,0c2.474,-0.977 5,-1.96 7.583,-2.962c5,-1.941 10.166,-3.941 15.319,-6.1c11.676,-4.865 18.771,-8.077 22.874,-10.037l0.118,-12.196c-1.813,-2.254 -3.921,-5.518 -5.897,-9.937l-101.756,0l0,-166.328l294.566,0l0,166.328l-101.009,0c-1.973,4.42 -4.086,7.683 -5.887,9.937l0.109,12.196c4.094,1.954 11.181,5.173 22.867,10.037c5.153,2.152 10.325,4.158 15.313,6.093c2.593,1.008 5.109,1.991 7.599,2.968l71.087,0c5.082,0 9.233,-4.668 9.233,-10.371l0,-21.627l0,-4.342l0,-184.962c-0.002,-5.089 -4.153,-9.239 -9.236,-9.239l0,0Z" style="fill:#675f58;fill-rule:nonzero;"/><path d="M369.538,354.658c-7.101,-11.072 -30.939,-17.949 -54.547,-27.789c-0.435,-0.179 -0.837,-0.345 -1.264,-0.531c-22.504,-9.411 -27.931,-12.714 -27.931,-12.714l-0.211,-22.643c0,0 2.139,-1.667 4.642,-5.875c2.592,-4.348 5.543,-11.392 6.947,-22.216c5.518,1.603 11.329,-8.246 11.635,-13.445c0.307,-4.993 -0.765,-18.87 -7.509,-17.474c1.379,-10.447 2.376,-19.831 1.896,-24.798c-1.756,-18.193 -19.661,-37.369 -47.197,-37.369c-27.538,0 -45.443,19.176 -47.201,37.369c-0.481,4.968 0.521,14.351 1.9,24.798c-6.747,-1.396 -7.82,12.481 -7.513,17.474c0.313,5.199 6.114,15.048 11.654,13.445c1.392,10.824 4.348,17.868 6.935,22.216c2.503,4.208 4.645,5.875 4.645,5.875l-0.217,22.643c0,0 -5.435,3.303 -27.934,12.714c-0.435,0.186 -0.83,0.352 -1.27,0.531c-23.598,9.84 -47.44,16.717 -54.535,27.789c-6.359,9.912 -4.45,43.705 -4.45,43.705l235.968,0c0,0 1.916,-33.793 -4.443,-43.705Z" style="fill:#fd8002;fill-rule:nonzero;"/></g><g><path d="M132.542,156.591l13.234,13.227l-13.234,13.234l5.684,5.684l18.92,-18.918l-18.92,-18.913l-5.684,5.686Z" style="fill:#675f58;fill-rule:nonzero;"/><rect x="167.536" y="161.785" width="24.112" height="8.033" style="fill:#675f58;"/></g><path d="M395.47,417.296l-279.419,0c0,0 -8.786,-51.449 0,-59.898c43.898,-42.216 230.026,-38.384 279.419,0c9.879,7.683 0,59.898 0,59.898Z" style="fill:#675f58;fill-rule:nonzero;"/></g></g></svg>